<svg width="196" height="76" viewBox="0 0 196 76" fill="none" xmlns="http://www.w3.org/2000/svg">
<path d="M12.1663 65.432C10.6303 65.432 9.22225 65.16 7.94225 64.616C6.69425 64.072 5.60625 63.24 4.67825 62.12C3.78225 61 3.09425 59.608 2.61425 57.944C2.13425 56.28 1.89425 54.344 1.89425 52.136C1.89425 49.16 2.31025 46.696 3.14225 44.744C4.00625 42.76 5.20625 41.272 6.74225 40.28C8.31025 39.288 10.1183 38.792 12.1663 38.792C13.5103 38.792 14.7103 39 15.7663 39.416C16.8543 39.832 17.7823 40.408 18.5503 41.144C19.3503 41.88 19.9423 42.744 20.3263 43.736H20.7103V30.008H27.7663V65H20.9503L20.7103 60.488H20.3263C19.7503 61.992 18.7423 63.192 17.3023 64.088C15.8623 64.984 14.1503 65.432 12.1663 65.432ZM14.8543 59.72C16.1663 59.72 17.2383 59.416 18.0703 58.808C18.9343 58.2 19.5743 57.416 19.9903 56.456C20.4063 55.464 20.6143 54.424 20.6143 53.336V50.888C20.6143 50.056 20.5023 49.256 20.2783 48.488C20.0543 47.72 19.7023 47.048 19.2223 46.472C18.7423 45.864 18.1343 45.384 17.3983 45.032C16.6623 44.68 15.8143 44.504 14.8543 44.504C13.7023 44.504 12.6943 44.776 11.8303 45.32C10.9663 45.864 10.2943 46.696 9.81425 47.816C9.33425 48.936 9.09425 50.376 9.09425 52.136C9.09425 53.832 9.33425 55.256 9.81425 56.408C10.2943 57.528 10.9663 58.36 11.8303 58.904C12.6943 59.448 13.7023 59.72 14.8543 59.72ZM44.8932 65.48C42.2053 65.48 39.9173 64.936 38.0293 63.848C36.1733 62.76 34.7493 61.224 33.7573 59.24C32.7653 57.256 32.2693 54.952 32.2693 52.328C32.2693 49.544 32.7653 47.144 33.7573 45.128C34.7813 43.112 36.2053 41.56 38.0293 40.472C39.8853 39.352 42.0773 38.792 44.6053 38.792C47.5493 38.792 49.9493 39.432 51.8053 40.712C53.6933 41.992 55.0533 43.752 55.8853 45.992C56.7173 48.232 56.9893 50.792 56.7013 53.672H39.1813C39.1813 55.08 39.4053 56.28 39.8533 57.272C40.3333 58.232 41.0053 58.952 41.8693 59.432C42.7333 59.912 43.7413 60.152 44.8932 60.152C46.2053 60.152 47.3093 59.848 48.2053 59.24C49.1013 58.632 49.6773 57.832 49.9333 56.84H56.5573C56.3653 58.6 55.7413 60.136 54.6853 61.448C53.6293 62.728 52.2533 63.72 50.5573 64.424C48.8933 65.128 47.0053 65.48 44.8932 65.48ZM39.1813 49.976L38.5573 49.304H50.4613L49.7893 49.976C49.8533 48.632 49.6613 47.544 49.2133 46.712C48.7973 45.848 48.1893 45.192 47.3893 44.744C46.6213 44.296 45.6933 44.072 44.6053 44.072C43.5173 44.072 42.5573 44.312 41.7253 44.792C40.9253 45.24 40.3013 45.912 39.8533 46.808C39.4373 47.672 39.2133 48.728 39.1813 49.976ZM66.1891 65L57.4051 39.224H64.9891L68.8771 53L70.4131 59.144H70.6531L72.1891 53.048L76.0771 39.224H83.7091L74.9731 65H66.1891ZM97.0685 65.432C95.1485 65.432 93.4045 65.128 91.8365 64.52C90.2685 63.88 88.9085 62.968 87.7565 61.784C86.6365 60.6 85.7725 59.192 85.1645 57.56C84.5885 55.928 84.3005 54.12 84.3005 52.136C84.3005 49.416 84.8285 47.064 85.8845 45.08C86.9405 43.096 88.4445 41.56 90.3965 40.472C92.3485 39.352 94.6525 38.792 97.3085 38.792C99.5165 38.792 101.469 39.208 103.165 40.04C104.893 40.872 106.269 42.024 107.293 43.496C108.317 44.968 108.877 46.68 108.973 48.632H102.061C101.933 47.736 101.629 46.984 101.149 46.376C100.701 45.768 100.125 45.32 99.4205 45.032C98.7485 44.712 97.9805 44.552 97.1165 44.552C95.9005 44.552 94.8605 44.872 93.9965 45.512C93.1325 46.12 92.4925 47 92.0765 48.152C91.6605 49.272 91.4525 50.6 91.4525 52.136C91.4525 53.832 91.6765 55.24 92.1245 56.36C92.6045 57.448 93.2605 58.28 94.0925 58.856C94.9565 59.4 95.9485 59.672 97.0685 59.672C98.0925 59.672 98.9565 59.496 99.6605 59.144C100.397 58.792 100.973 58.296 101.389 57.656C101.837 57.016 102.093 56.296 102.157 55.496H109.021C108.925 57.512 108.349 59.272 107.293 60.776C106.269 62.248 104.877 63.4 103.117 64.232C101.357 65.032 99.3405 65.432 97.0685 65.432ZM113.352 65V30.008H120.408V65H113.352ZM135.405 65.432C133.421 65.432 131.741 65.048 130.365 64.28C128.989 63.512 127.949 62.376 127.245 60.872C126.573 59.336 126.237 57.48 126.237 55.304V39.272H133.293V53.432C133.293 54.776 133.453 55.912 133.773 56.84C134.125 57.768 134.653 58.488 135.357 59C136.093 59.48 137.037 59.72 138.189 59.72C139.373 59.72 140.381 59.432 141.213 58.856C142.045 58.28 142.685 57.528 143.133 56.6C143.581 55.64 143.805 54.6 143.805 53.48V39.272H150.861V65H144.093L143.805 60.296H143.469C142.861 61.96 141.821 63.24 140.349 64.136C138.909 65 137.261 65.432 135.405 65.432ZM172.265 65.48C170.953 65.48 169.753 65.272 168.665 64.856C167.577 64.44 166.633 63.864 165.833 63.128C165.065 62.392 164.489 61.528 164.105 60.536H163.721L163.433 65H156.665V30.008H163.721V43.736H164.105C164.681 42.264 165.689 41.08 167.129 40.184C168.569 39.256 170.281 38.792 172.265 38.792C173.801 38.792 175.193 39.08 176.441 39.656C177.721 40.2 178.809 41.032 179.705 42.152C180.633 43.272 181.337 44.664 181.817 46.328C182.297 47.992 182.537 49.928 182.537 52.136C182.537 55.08 182.105 57.544 181.241 59.528C180.409 61.512 179.209 63 177.641 63.992C176.105 64.984 174.313 65.48 172.265 65.48ZM169.577 59.768C170.729 59.768 171.737 59.496 172.601 58.952C173.465 58.376 174.137 57.528 174.617 56.408C175.097 55.288 175.337 53.864 175.337 52.136C175.337 50.824 175.193 49.688 174.905 48.728C174.649 47.768 174.265 46.984 173.753 46.376C173.241 45.736 172.633 45.272 171.929 44.984C171.225 44.664 170.441 44.504 169.577 44.504C168.297 44.504 167.225 44.808 166.361 45.416C165.497 46.024 164.841 46.808 164.393 47.768C163.977 48.728 163.769 49.768 163.769 50.888V53.384C163.769 54.472 163.977 55.496 164.393 56.456C164.841 57.416 165.497 58.216 166.361 58.856C167.225 59.464 168.297 59.768 169.577 59.768ZM186.416 65V58.52H193.184V65H186.416Z" fill="black"/>
<path d="M53.128 27V12.3H55.284L55.368 15.352H55.536C55.984 14.2693 56.6747 13.4573 57.608 12.916C58.5413 12.356 59.5587 12.076 60.66 12.076C61.4253 12.076 62.1253 12.188 62.76 12.412C63.4133 12.636 63.9733 13 64.44 13.504C64.9253 14.008 65.2987 14.6613 65.56 15.464C65.8213 16.248 65.952 17.2093 65.952 18.348V27H63.684V18.796C63.684 17.6947 63.544 16.7893 63.264 16.08C63.0027 15.3707 62.592 14.848 62.032 14.512C61.4907 14.1573 60.7907 13.98 59.932 13.98C59.0173 13.98 58.2147 14.204 57.524 14.652C56.8333 15.1 56.3013 15.7067 55.928 16.472C55.5547 17.2187 55.368 18.0773 55.368 19.048V27H53.128ZM75.0091 27.28C73.7585 27.28 72.6758 27.0747 71.7611 26.664C70.8651 26.2533 70.1745 25.684 69.6891 24.956C69.2225 24.228 68.9891 23.3787 68.9891 22.408H71.2571C71.2571 23.4907 71.6025 24.2933 72.2931 24.816C73.0025 25.32 73.9265 25.572 75.0651 25.572C76.2038 25.572 77.0718 25.3573 77.6691 24.928C78.2851 24.4987 78.5931 23.892 78.5931 23.108C78.5931 22.5107 78.4625 22.0533 78.2011 21.736C77.9398 21.4 77.5385 21.1387 76.9971 20.952C76.4558 20.7653 75.7465 20.6067 74.8691 20.476C73.6558 20.308 72.6385 20.0747 71.8171 19.776C71.0145 19.4773 70.4078 19.0573 69.9971 18.516C69.6051 17.956 69.4091 17.228 69.4091 16.332C69.4091 15.4733 69.6425 14.7267 70.1091 14.092C70.5758 13.4387 71.2291 12.9347 72.0691 12.58C72.9091 12.2067 73.8891 12.02 75.0091 12.02C76.1851 12.02 77.1838 12.216 78.0051 12.608C78.8451 12.9813 79.4798 13.5133 79.9091 14.204C80.3571 14.876 80.5905 15.6787 80.6091 16.612H78.3971C78.3785 15.9213 78.2198 15.3707 77.9211 14.96C77.6411 14.5493 77.2491 14.2507 76.7451 14.064C76.2598 13.8587 75.6718 13.756 74.9811 13.756C73.9358 13.756 73.1238 13.9707 72.5451 14.4C71.9665 14.8293 71.6771 15.3987 71.6771 16.108C71.6771 16.6493 71.8171 17.088 72.0971 17.424C72.3771 17.7413 72.8065 17.9933 73.3851 18.18C73.9638 18.348 74.7105 18.4973 75.6251 18.628C76.4465 18.74 77.1838 18.8893 77.8371 19.076C78.4905 19.2627 79.0411 19.524 79.4891 19.86C79.9558 20.1773 80.3011 20.588 80.5251 21.092C80.7678 21.5773 80.8891 22.184 80.8891 22.912C80.8891 24.312 80.3478 25.3947 79.2651 26.16C78.2011 26.9067 76.7825 27.28 75.0091 27.28ZM88.0005 27C87.2725 27 86.6938 26.8973 86.2645 26.692C85.8538 26.4867 85.5551 26.1787 85.3685 25.768C85.2005 25.3387 85.1165 24.816 85.1165 24.2V14.176H82.2605V12.3H85.1165V7.904L87.3845 7.596V12.3H90.8005V14.176H87.3845V23.808C87.3845 24.3307 87.4778 24.676 87.6645 24.844C87.8511 25.012 88.1965 25.096 88.7005 25.096H90.8005V27H88.0005ZM98.0026 27L103.827 19.384L98.6186 12.3H101.279L105.283 17.788H105.423L109.371 12.3H111.947L106.851 19.328L112.507 27H109.847L105.367 20.868H105.199L100.551 27H98.0026Z" fill="#0C59FF"/>
<path d="M120.995 27V12.3H123.011L123.151 15.016H123.263C123.581 14.0827 124.141 13.364 124.943 12.86C125.746 12.356 126.642 12.104 127.631 12.104C127.799 12.104 127.958 12.1133 128.107 12.132C128.257 12.132 128.397 12.1413 128.527 12.16V14.316C128.397 14.2973 128.257 14.288 128.107 14.288C127.958 14.2693 127.799 14.26 127.631 14.26C126.773 14.26 126.026 14.4187 125.391 14.736C124.757 15.0533 124.253 15.5107 123.879 16.108C123.525 16.6867 123.31 17.396 123.235 18.236V27H120.995ZM136.374 27.252C135.292 27.252 134.349 27.0373 133.546 26.608C132.744 26.16 132.128 25.4973 131.698 24.62C131.269 23.724 131.054 22.6227 131.054 21.316V12.3H133.322V20.756C133.322 21.7267 133.453 22.5573 133.714 23.248C133.976 23.92 134.386 24.4333 134.946 24.788C135.525 25.1427 136.262 25.32 137.158 25.32C138.036 25.32 138.81 25.1053 139.482 24.676C140.154 24.2467 140.677 23.64 141.05 22.856C141.424 22.072 141.61 21.1667 141.61 20.14V12.3H143.878V27H141.722L141.61 23.864H141.47C141.078 24.9093 140.425 25.74 139.51 26.356C138.596 26.9533 137.55 27.252 136.374 27.252Z" fill="#FF0000"/>
</svg>
