<svg width="174" height="146" viewBox="0 0 174 146" fill="none" xmlns="http://www.w3.org/2000/svg">
<g clip-path="url(#clip0_604_22)">
<path d="M100.795 146C60.4284 146 27.5909 113.253 27.5909 72.9975C27.5909 32.7419 60.4335 0 100.795 0C141.157 0 174 32.747 174 73.0025C174 113.258 141.162 146.005 100.795 146.005V146ZM100.795 3.56306C62.4016 3.56306 31.1638 34.7147 31.1638 73.0025C31.1638 111.29 62.4016 142.442 100.795 142.442C139.189 142.442 170.427 111.29 170.427 73.0025C170.427 34.7147 139.189 3.56306 100.795 3.56306Z" fill="#FF0000"/>
<path d="M46.6465 146C6.28453 146 -26.5581 113.253 -26.5581 72.9975C-26.5581 32.7419 6.28453 0 46.6465 0C87.0084 0 119.851 32.747 119.851 73.0025C119.851 113.258 87.0134 146.005 46.6465 146.005V146ZM46.6465 3.56306C8.25267 3.56306 -22.9852 34.7147 -22.9852 73.0025C-22.9852 111.29 8.25267 142.442 46.6465 142.442C85.0403 142.442 116.278 111.29 116.278 73.0025C116.278 34.7147 85.0403 3.56306 46.6465 3.56306Z" fill="#FF0000"/>
<path d="M-7.50253 146C-47.8645 146 -80.7071 113.253 -80.7071 72.9975C-80.7071 32.7419 -47.8645 0 -7.50253 0C32.8594 0 65.702 32.747 65.702 73.0025C65.702 113.258 32.8645 146.005 -7.50253 146.005V146ZM-7.50253 3.56306C-45.8963 3.56306 -77.1342 34.7147 -77.1342 73.0025C-77.1342 111.29 -45.8963 142.442 -7.50253 142.442C30.8913 142.442 62.1291 111.29 62.1291 73.0025C62.1291 34.7147 30.8963 3.56306 -7.50253 3.56306Z" fill="#FF0000"/>
<path d="M-61.6464 146C-102.008 146 -134.851 113.253 -134.851 72.9975C-134.851 32.7419 -102.013 0 -61.6464 0C-21.2795 0 11.5581 32.747 11.5581 73.0025C11.5581 113.258 -21.2795 146.005 -61.6464 146.005V146ZM-61.6464 3.56306C-100.04 3.56306 -131.278 34.7147 -131.278 73.0025C-131.278 111.29 -100.04 142.442 -61.6464 142.442C-23.2526 142.442 7.9852 111.29 7.9852 73.0025C7.9852 34.7147 -23.2526 3.56306 -61.6464 3.56306Z" fill="#FF0000"/>
</g>
<defs>
<clipPath id="clip0_604_22">
<rect width="363" height="146" fill="white" transform="translate(-189)"/>
</clipPath>
</defs>
</svg>
